<?xml version="1.0" encoding="utf-8"?>
<!-- Generator: Adobe Illustrator 24.2.0, SVG Export Plug-In . SVG Version: 6.00 Build 0)  -->
<!DOCTYPE svg PUBLIC "-//W3C//DTD SVG 1.1//EN" "http://www.w3.org/Graphics/SVG/1.1/DTD/svg11.dtd" [
	<!ENTITY ns_extend "http://ns.adobe.com/Extensibility/1.0/">
	<!ENTITY ns_ai "http://ns.adobe.com/AdobeIllustrator/10.0/">
	<!ENTITY ns_graphs "http://ns.adobe.com/Graphs/1.0/">
	<!ENTITY ns_vars "http://ns.adobe.com/Variables/1.0/">
	<!ENTITY ns_imrep "http://ns.adobe.com/ImageReplacement/1.0/">
	<!ENTITY ns_sfw "http://ns.adobe.com/SaveForWeb/1.0/">
	<!ENTITY ns_custom "http://ns.adobe.com/GenericCustomNamespace/1.0/">
	<!ENTITY ns_adobe_xpath "http://ns.adobe.com/XPath/1.0/">
]>
<svg version="1.1"
	 id="Layer_1" xmlns:x="&ns_extend;" xmlns:i="&ns_ai;" xmlns:graph="&ns_graphs;" xmlns:svgjs="http://svgjs.com/svgjs"
	 xmlns="http://www.w3.org/2000/svg" xmlns:xlink="http://www.w3.org/1999/xlink" x="0px" y="0px" viewBox="0 0 512 512"
	 style="enable-background:new 0 0 512 512;" xml:space="preserve">
<style type="text/css">
	.st0{fill:#232323;}
	.st1{fill:#FCAD30;}
</style>
<metadata>
	<sfw  xmlns="&ns_sfw;">
		<slices></slices>
		<sliceSourceBounds  bottomLeftOrigin="true" height="512" width="496.4" x="7.8" y="0"></sliceSourceBounds>
	</sfw>
</metadata>
<g>
	<g>
		<path class="st0" d="M127.6,40.1h46.3c3.6,0,6.4-2.9,6.4-6.4s-2.9-6.4-6.4-6.4h-46.3c-3.6,0-6.4,2.9-6.4,6.4S124,40.1,127.6,40.1z
			"/>
		<path class="st0" d="M150.7,449c-11.6,0-21,9.4-21,21s9.4,21,21,21c11.6,0,21-9.4,21-21S162.3,449,150.7,449z M150.7,478.1
			c-4.5,0-8.1-3.6-8.1-8.1s3.6-8.1,8.1-8.1c4.5,0,8.1,3.6,8.1,8.1S155.2,478.1,150.7,478.1z"/>
		<path class="st1" d="M70.1,151.1h81.3c3.6,0,6.4-2.9,6.4-6.4s-2.9-6.4-6.4-6.4H70.1c-3.6,0-6.4,2.9-6.4,6.4S66.5,151.1,70.1,151.1
			z"/>
		<path class="st1" d="M70.1,267.5h81.3c3.6,0,6.4-2.9,6.4-6.4s-2.9-6.4-6.4-6.4H70.1c-3.6,0-6.4,2.9-6.4,6.4S66.5,267.5,70.1,267.5
			z"/>
		<path class="st1" d="M185.7,278.4H70.1c-3.6,0-6.4,2.9-6.4,6.4c0,3.6,2.9,6.4,6.4,6.4h115.7c3.6,0,6.4-2.9,6.4-6.4
			C192.2,281.3,189.3,278.4,185.7,278.4z"/>
		<path class="st0" d="M497.7,255.7c3.6,0,6.4-2.9,6.4-6.4V84.3c0-3.6-2.9-6.4-6.4-6.4H293.6V26.8c0-14.8-12-26.8-26.8-26.8H34.6
			C19.8,0,7.8,12,7.8,26.8v458.4c0,14.8,12,26.8,26.8,26.8h232.1c14.8,0,26.8-12,26.8-26.8v-95.7h204.2c3.6,0,6.4-2.9,6.4-6.4v-97.2
			c0-3.6-2.9-6.4-6.4-6.4H293.6v-23.7L497.7,255.7L497.7,255.7z M491.3,242.8H209.8v-152h281.5V242.8z M203.4,279.4
			c-3.6,0-6.4,2.9-6.4,6.4v35H50.7V214.5H197v16.3H70.1c-3.6,0-6.4,2.9-6.4,6.4s2.9,6.4,6.4,6.4H197v5.6c0,3.6,2.9,6.4,6.4,6.4h47.3
			v23.7H203.4L203.4,279.4z M203.4,389.5h47.3v10.8h-200v-43.5H197V383C197,386.6,199.9,389.5,203.4,389.5z M197,114.5H70.1
			c-3.6,0-6.4,2.9-6.4,6.4c0,3.6,2.9,6.4,6.4,6.4H197v51.8H50.7V99.3H197V114.5z M34.6,12.9h232.1c7.7,0,13.9,6.3,13.9,13.9v34h-260
			v-34C20.7,19.1,26.9,12.9,34.6,12.9z M266.8,499.1H34.6c-7.7,0-13.9-6.3-13.9-13.9v-44.6h260v44.6
			C280.7,492.9,274.4,499.1,266.8,499.1z M280.7,427.7h-260V73.7h260v4.2h-77.3c-3.6,0-6.4,2.9-6.4,6.4v2.1H44.3
			c-3.6,0-6.4,2.9-6.4,6.4v92.7c0,3.6,2.9,6.4,6.4,6.4H197v9.6H44.3c-3.6,0-6.4,2.9-6.4,6.4v119.2c0,3.6,2.9,6.4,6.4,6.4H197v10.2
			H44.3c-3.6,0-6.4,2.9-6.4,6.4v56.4c0,3.6,2.9,6.4,6.4,6.4h212.8c3.6,0,6.4-2.9,6.4-6.4v-17.3h17.2V427.7z M491.3,376.6H209.8
			v-84.3h281.5V376.6z M280.7,279.4h-17.2v-23.7h17.2V279.4z"/>
		<path class="st0" d="M239.1,131.1h223c3.6,0,6.4-2.9,6.4-6.4c0-3.6-2.9-6.4-6.4-6.4h-223c-3.6,0-6.4,2.9-6.4,6.4
			C232.6,128.3,235.5,131.1,239.1,131.1z"/>
		<path class="st1" d="M239.1,164.1h112.4c3.6,0,6.4-2.9,6.4-6.4c0-3.6-2.9-6.4-6.4-6.4H239.1c-3.6,0-6.4,2.9-6.4,6.4
			C232.6,161.2,235.5,164.1,239.1,164.1z"/>
		<path class="st1" d="M239.1,322.3h223c3.6,0,6.4-2.9,6.4-6.4s-2.9-6.4-6.4-6.4h-223c-3.6,0-6.4,2.9-6.4,6.4
			S235.5,322.3,239.1,322.3z"/>
		<path class="st1" d="M239.1,355.2h112.4c3.6,0,6.4-2.9,6.4-6.4s-2.9-6.4-6.4-6.4H239.1c-3.6,0-6.4,2.9-6.4,6.4
			S235.5,355.2,239.1,355.2z"/>
		<path class="st1" d="M239.1,197h160c3.6,0,6.4-2.9,6.4-6.4c0-3.6-2.9-6.4-6.4-6.4h-160c-3.6,0-6.4,2.9-6.4,6.4
			C232.6,194.1,235.5,197,239.1,197z"/>
		<path class="st1" d="M136.8,372.2H70.1c-3.6,0-6.4,2.9-6.4,6.4s2.9,6.4,6.4,6.4h66.8c3.6,0,6.4-2.9,6.4-6.4
			S140.4,372.2,136.8,372.2z"/>
	</g>
</g>
</svg>
