<?xml version="1.0"?>
<svg xmlns="http://www.w3.org/2000/svg" xmlns:xlink="http://www.w3.org/1999/xlink" xmlns:svgjs="http://svgjs.com/svgjs" version="1.1" width="512" height="512" x="0" y="0" viewBox="0 0 512.15 512.15" style="enable-background:new 0 0 512 512" xml:space="preserve" class=""><g><path xmlns="http://www.w3.org/2000/svg" d="m471.706 59.588c-23.967-23.886-57.702-36.511-97.557-36.511-62.248 1.408-93.61 28.504-117.545 59.528-2.678-3.8-5.696-7.706-9.085-11.62-41.345-53.552-149.657-68.867-206.927-11.396-26.835 26.744-40.442 65.825-40.442 116.155-5.469 95.405 140.235 243.194 215.225 299.328 24.007 18.694 57.542 18.691 81.549 0 11.583-9.018 35.338-28.243 64.3-55.678 8.019-7.596 8.361-20.255.765-28.274s-20.254-8.361-28.274-.765c-27.738 26.276-50.353 44.582-61.365 53.156-9.539 7.428-22.862 7.428-32.401 0-43.234-33.012-119.161-104.871-158.064-163.434h51.265c7.725 0 14.759-4.449 18.07-11.428l18.236-38.443 51.385 116.918c3.184 7.245 10.34 11.931 18.254 11.953h.056c7.891 0 15.047-4.642 18.264-11.851l40.864-91.592 26.023 51.468c3.312 6.55 9.945 10.76 17.282 10.968 7.33.207 14.197-3.62 17.875-9.972l16.223-28.021h54.001c-8.664 12.534-18.643 25.619-29.931 39.237-16.119 21.096 13.065 45.278 30.797 25.525 54.91-66.249 81.602-121.56 81.602-169.095-.001-50.33-13.608-89.411-40.445-116.156zm-107.556 180.488c-7.137 0-13.733 3.803-17.309 9.979l-3.502 6.049-28.341-56.053c-3.482-6.888-10.62-11.151-18.333-10.97-7.716.187-14.635 4.797-17.78 11.845l-39.598 88.754-50.828-115.65c-3.15-7.168-10.193-11.838-18.021-11.951-7.838-.101-15.002 4.353-18.358 11.426l-31.579 66.572h-62.338c-11.902-24.003-18.013-45.657-18.013-64.332 0-93.121 53.293-112.668 98-112.668 76.725 0 97.702 64.061 98.817 67.661 2.398 8.489 10.013 14.392 18.836 14.545 8.823.128 16.64-5.509 19.331-13.911 1.208-3.509 24.579-68.295 99.016-68.295 44.707 0 98 19.547 98 112.668 0 18.728-6.14 40.229-18.333 64.332h-89.667z" fill="#ffffff" data-original="#000000" style="" class=""/></g></svg>
