<?xml version="1.0" encoding="utf-8"?>
<!-- Generator: Adobe Illustrator 24.2.0, SVG Export Plug-In . SVG Version: 6.00 Build 0)  -->
<!DOCTYPE svg PUBLIC "-//W3C//DTD SVG 1.1//EN" "http://www.w3.org/Graphics/SVG/1.1/DTD/svg11.dtd" [
	<!ENTITY ns_extend "http://ns.adobe.com/Extensibility/1.0/">
	<!ENTITY ns_ai "http://ns.adobe.com/AdobeIllustrator/10.0/">
	<!ENTITY ns_graphs "http://ns.adobe.com/Graphs/1.0/">
	<!ENTITY ns_vars "http://ns.adobe.com/Variables/1.0/">
	<!ENTITY ns_imrep "http://ns.adobe.com/ImageReplacement/1.0/">
	<!ENTITY ns_sfw "http://ns.adobe.com/SaveForWeb/1.0/">
	<!ENTITY ns_custom "http://ns.adobe.com/GenericCustomNamespace/1.0/">
	<!ENTITY ns_adobe_xpath "http://ns.adobe.com/XPath/1.0/">
]>
<svg version="1.1"
	 id="Layer_1" xmlns:x="&ns_extend;" xmlns:i="&ns_ai;" xmlns:graph="&ns_graphs;" xmlns:svgjs="http://svgjs.com/svgjs"
	 xmlns="http://www.w3.org/2000/svg" xmlns:xlink="http://www.w3.org/1999/xlink" x="0px" y="0px" viewBox="0 0 512 512"
	 style="enable-background:new 0 0 512 512;" xml:space="preserve">
<style type="text/css">
	.st0{fill:#232323;}
	.st1{fill:#FCAD30;}
</style>
<metadata>
	<sfw  xmlns="&ns_sfw;">
		<slices></slices>
		<sliceSourceBounds  bottomLeftOrigin="true" height="512" width="511.9" x="0" y="0"></sliceSourceBounds>
	</sfw>
</metadata>
<g>
	<g>
		<circle class="st0" cx="110" cy="110" r="35"/>
		<path class="st0" d="M187.8,187.8C208.6,167,220,139.4,220,110C220,49.3,170.7,0,110,0C49.4,0,0,49.3,0,110
			c0,29.4,11.4,57,32.2,77.8l77.8,77.8L187.8,187.8z M45,110c0-35.8,29.2-65,65-65s65,29.2,65,65s-29.2,65-65,65S45,145.8,45,110z"
			/>
		<path class="st0" d="M432,318.9c-44.1,0-80,35.9-80,80c0,21.4,8.3,41.5,23.4,56.6L432,512l56.6-56.6
			c15.1-15.1,23.4-35.2,23.4-56.6C512,354.8,476.1,318.9,432,318.9L432,318.9z"/>
		<path class="st1" d="M125,415.4c0-36.7,29.8-66.5,66.5-66.5h55.7c33,0,59.8-26.8,59.8-59.8s-26.8-59.8-59.8-59.8H189v30h58.2
			c16.4,0,29.8,13.4,29.8,29.8s-13.4,29.8-29.8,29.8h-55.7c-53.2,0-96.5,43.3-96.5,96.5s43.3,96.5,96.5,96.5H359v-30H191.6
			C154.9,481.9,125,452.1,125,415.4z"/>
	</g>
</g>
</svg>
