<?xml version="1.0" encoding="utf-8"?>
<!-- Generator: Adobe Illustrator 24.2.0, SVG Export Plug-In . SVG Version: 6.00 Build 0)  -->
<!DOCTYPE svg PUBLIC "-//W3C//DTD SVG 1.1//EN" "http://www.w3.org/Graphics/SVG/1.1/DTD/svg11.dtd" [
	<!ENTITY ns_extend "http://ns.adobe.com/Extensibility/1.0/">
	<!ENTITY ns_ai "http://ns.adobe.com/AdobeIllustrator/10.0/">
	<!ENTITY ns_graphs "http://ns.adobe.com/Graphs/1.0/">
	<!ENTITY ns_vars "http://ns.adobe.com/Variables/1.0/">
	<!ENTITY ns_imrep "http://ns.adobe.com/ImageReplacement/1.0/">
	<!ENTITY ns_sfw "http://ns.adobe.com/SaveForWeb/1.0/">
	<!ENTITY ns_custom "http://ns.adobe.com/GenericCustomNamespace/1.0/">
	<!ENTITY ns_adobe_xpath "http://ns.adobe.com/XPath/1.0/">
]>
<svg version="1.1"
	 id="Layer_1" xmlns:x="&ns_extend;" xmlns:i="&ns_ai;" xmlns:graph="&ns_graphs;" xmlns:svgjs="http://svgjs.com/svgjs"
	 xmlns="http://www.w3.org/2000/svg" xmlns:xlink="http://www.w3.org/1999/xlink" x="0px" y="0px" viewBox="0 0 512 512"
	 style="enable-background:new 0 0 512 512;" xml:space="preserve">
<style type="text/css">
	.st0{fill:#FFFFFF;}
</style>
<metadata>
	<sfw  xmlns="&ns_sfw;">
		<slices></slices>
		<sliceSourceBounds  bottomLeftOrigin="true" height="512" width="381.1" x="60" y="0"></sliceSourceBounds>
	</sfw>
</metadata>
<g>
	<path class="st0" d="M74,70.6h353.1V53c0-29.2-23.7-52.9-53-53H127C97.7,0,74,23.7,74,53V70.6z M224.1,35.3h97.1
		c4.9,0,8.8,4,8.8,8.8s-4,8.8-8.8,8.8h-97.1c-4.9,0-8.8-4-8.8-8.8S219.2,35.3,224.1,35.3z M171.8,40.8c0.4-1.1,1.1-2.1,1.9-2.9
		c2.5-2.5,6.3-3.3,9.7-1.9s5.5,4.6,5.4,8.2c0,2.4-0.9,4.6-2.6,6.3s-3.9,2.6-6.3,2.6c-0.6,0-1.2-0.1-1.8-0.2
		c-0.6-0.1-1.1-0.3-1.6-0.5c-0.6-0.2-1.1-0.5-1.6-0.8c-0.5-0.3-0.9-0.7-1.3-1.1c-1.6-1.7-2.5-3.9-2.6-6.3
		C171.1,43,171.4,41.8,171.8,40.8z"/>
	<path class="st0" d="M427.1,298.6l-87.7,87.8c-6.9,6.8-18.1,6.8-25,0l-18.7-18.7c-6.9-6.9-6.9-18.1,0-25l86.7-86.7l-86.7-86.7
		c-6.9-6.9-6.9-18.1,0-25l18.7-18.7c6.9-6.9,18.1-6.9,25,0l87.7,87.8V88.3H74v125.2l87.7-87.8c6.9-6.9,18.1-6.9,25,0l18.7,18.7
		c6.9,6.9,6.9,18.1,0,25L118.8,256l86.7,86.7c6.9,6.9,6.9,18.1,0,25l-18.7,18.7c-6.9,6.8-18.1,6.8-25,0L74,298.6v125.2h353.1V298.6z
		"/>
	<path class="st0" d="M127,512h247.2c29.2,0,52.9-23.7,53-53v-17.7H74V459C74,488.3,97.7,512,127,512z M241.7,467.9h17.7
		c4.9,0,8.8,3.9,8.8,8.8c0,4.9-4,8.8-8.8,8.8h-17.7c-4.9,0-8.8-3.9-8.8-8.8C232.9,471.8,236.8,467.9,241.7,467.9z"/>
	<path class="st0" d="M192.9,156.9l-18.7-18.7L62.6,249.8c-3.4,3.4-3.4,9,0,12.5l111.6,111.6l18.7-18.7L100,262.3
		c-3.4-3.5-3.4-9.1,0-12.5L192.9,156.9z"/>
	<path class="st0" d="M438.5,249.8L326.9,138.2l-18.7,18.7l92.9,92.9c3.4,3.5,3.4,9.1,0,12.5l-92.9,92.9l18.7,18.7l111.6-111.6
		C442,258.8,442,253.2,438.5,249.8z"/>
</g>
</svg>
