<?xml version="1.0" encoding="utf-8"?>
<!-- Generator: Adobe Illustrator 24.2.0, SVG Export Plug-In . SVG Version: 6.00 Build 0)  -->
<!DOCTYPE svg PUBLIC "-//W3C//DTD SVG 1.1//EN" "http://www.w3.org/Graphics/SVG/1.1/DTD/svg11.dtd" [
	<!ENTITY ns_extend "http://ns.adobe.com/Extensibility/1.0/">
	<!ENTITY ns_ai "http://ns.adobe.com/AdobeIllustrator/10.0/">
	<!ENTITY ns_graphs "http://ns.adobe.com/Graphs/1.0/">
	<!ENTITY ns_vars "http://ns.adobe.com/Variables/1.0/">
	<!ENTITY ns_imrep "http://ns.adobe.com/ImageReplacement/1.0/">
	<!ENTITY ns_sfw "http://ns.adobe.com/SaveForWeb/1.0/">
	<!ENTITY ns_custom "http://ns.adobe.com/GenericCustomNamespace/1.0/">
	<!ENTITY ns_adobe_xpath "http://ns.adobe.com/XPath/1.0/">
]>
<svg version="1.1" id="Layer_1" xmlns:x="&ns_extend;" xmlns:i="&ns_ai;" xmlns:graph="&ns_graphs;"
	 xmlns="http://www.w3.org/2000/svg" xmlns:xlink="http://www.w3.org/1999/xlink" x="0px" y="0px" viewBox="0 0 512 512"
	 style="enable-background:new 0 0 512 512;" xml:space="preserve">
<style type="text/css">
	.st0{fill:#232323;}
	.st1{fill:#FCAD30;}
</style>
<metadata>
	<sfw  xmlns="&ns_sfw;">
		<slices></slices>
		<sliceSourceBounds  bottomLeftOrigin="true" height="480" width="480" x="16" y="16"></sliceSourceBounds>
	</sfw>
</metadata>
<g id="Outline">
	<path class="st0" d="M336,163.8l37-29.6l-10-12.5l-27,21.6V128c0-4.4-3.6-8-8-8H184c-4.4,0-8,3.6-8,8v15.4l-27-21.6l-10,12.5
		l37,29.6V248h-48v16h48v84.2l-37,29.6l10,12.5l27-21.6V384c0,4.4,3.6,8,8,8h144c4.4,0,8-3.6,8-8v-15.4l27,21.6l10-12.5l-37-29.6
		V264h48v-16h-48V163.8z M320,312H192v-48h128V312z M192,248v-48h128v48H192z M320,136v48H192v-48H320z M192,376v-48h128v48H192z"/>
	<path class="st1" d="M208,152h16v16h-16V152z"/>
	<path class="st1" d="M240,152h64v16h-64V152z"/>
	<path class="st1" d="M208,216h16v16h-16V216z"/>
	<path class="st1" d="M240,216h64v16h-64V216z"/>
	<path class="st1" d="M208,280h16v16h-16V280z"/>
	<path class="st1" d="M240,280h64v16h-64V280z"/>
	<path class="st1" d="M208,344h16v16h-16V344z"/>
	<path class="st1" d="M240,344h64v16h-64V344z"/>
	<path class="st0" d="M432,88c8.8,0,16-7.2,16-16V32c0-8.8-7.2-16-16-16h-64c-8.8,0-16,7.2-16,16v40c0,8.8,7.2,16,16,16h24v16h-16
		v16h48v-16h-16V88H432z M368,32h64l0,40h-64V32z"/>
	<path class="st0" d="M88,104v16h48v-16h-16V88h24c8.8,0,16-7.2,16-16V32c0-8.8-7.2-16-16-16H80c-8.8,0-16,7.2-16,16v40
		c0,8.8,7.2,16,16,16h24v16H88z M80,32h64l0,40H80L80,32z"/>
	<path class="st0" d="M32,280h24v16H40v16h48v-16H72v-16h24c8.8,0,16-7.2,16-16v-40c0-8.8-7.2-16-16-16H32c-8.8,0-16,7.2-16,16v40
		C16,272.8,23.2,280,32,280z M32,224h64l0,40H32V224z"/>
	<path class="st0" d="M480,216h-64c-8.8,0-16,7.2-16,16v40c0,8.8,7.2,16,16,16h24v16h-16v16h48v-16h-16v-16h24c8.8,0,16-7.2,16-16
		v-40C496,223.2,488.8,216,480,216z M416,272v-40h64l0,40H416z"/>
	<path class="st0" d="M432,464c8.8,0,16-7.2,16-16v-40c0-8.8-7.2-16-16-16h-64c-8.8,0-16,7.2-16,16v40c0,8.8,7.2,16,16,16h24v16h-16
		v16h48v-16h-16v-16H432z M368,408h64l0,40h-64V408z"/>
	<path class="st0" d="M144,464c8.8,0,16-7.2,16-16v-40c0-8.8-7.2-16-16-16H80c-8.8,0-16,7.2-16,16v40c0,8.8,7.2,16,16,16h24v16H88
		v16h48v-16h-16v-16H144z M80,408h64l0,40H80L80,408z"/>
</g>
</svg>
