<?xml version="1.0"?>
<svg xmlns="http://www.w3.org/2000/svg" xmlns:xlink="http://www.w3.org/1999/xlink" xmlns:svgjs="http://svgjs.com/svgjs" version="1.1" width="512" height="512" x="0" y="0" viewBox="0 0 512 512" style="enable-background:new 0 0 512 512" xml:space="preserve"><g><g xmlns="http://www.w3.org/2000/svg" id="Solid"><path d="m192 376h128v-48h-128zm48-32h64v16h-64zm-32 0h16v16h-16z" fill="#ffffff" data-original="#000000" style=""/><path d="m192 312h128v-48h-128zm48-32h64v16h-64zm-32 0h16v16h-16z" fill="#ffffff" data-original="#000000" style=""/><path d="m192 184h128v-48h-128zm48-32h64v16h-64zm-32 0h16v16h-16z" fill="#ffffff" data-original="#000000" style=""/><path d="m192 248h128v-48h-128zm48-32h64v16h-64zm-32 0h16v16h-16z" fill="#ffffff" data-original="#000000" style=""/><path d="m368 88h24v16h-16v16h48v-16h-16v-16h24a16.016 16.016 0 0 0 16-16v-40a16.016 16.016 0 0 0 -16-16h-64a16.016 16.016 0 0 0 -16 16v40a16.016 16.016 0 0 0 16 16z" fill="#ffffff" data-original="#000000" style=""/><path d="m144 16h-64a16.016 16.016 0 0 0 -16 16v40a16.016 16.016 0 0 0 16 16h24v16h-16v16h48v-16h-16v-16h24a16.016 16.016 0 0 0 16-16v-40a16.016 16.016 0 0 0 -16-16z" fill="#ffffff" data-original="#000000" style=""/><path d="m40 296v16h48v-16h-16v-16h24a16.016 16.016 0 0 0 16-16v-40a16.016 16.016 0 0 0 -16-16h-64a16.016 16.016 0 0 0 -16 16v40a16.016 16.016 0 0 0 16 16h24v16z" fill="#ffffff" data-original="#000000" style=""/><path d="m480 216h-64a16.016 16.016 0 0 0 -16 16v40a16.016 16.016 0 0 0 16 16h24v16h-16v16h48v-16h-16v-16h24a16.016 16.016 0 0 0 16-16v-40a16.016 16.016 0 0 0 -16-16z" fill="#ffffff" data-original="#000000" style=""/><path d="m432 392h-64a16.016 16.016 0 0 0 -16 16v40a16.016 16.016 0 0 0 16 16h24v16h-16v16h48v-16h-16v-16h24a16.016 16.016 0 0 0 16-16v-40a16.016 16.016 0 0 0 -16-16z" fill="#ffffff" data-original="#000000" style=""/><path d="m144 392h-64a16.016 16.016 0 0 0 -16 16v40a16.016 16.016 0 0 0 16 16h24v16h-16v16h48v-16h-16v-16h24a16.016 16.016 0 0 0 16-16v-40a16.016 16.016 0 0 0 -16-16z" fill="#ffffff" data-original="#000000" style=""/><path d="m128 248h48v16h-48z" fill="#ffffff" data-original="#000000" style=""/><path d="m148.996 121.754-9.992 12.492 36.996 29.597v-20.486z" fill="#ffffff" data-original="#000000" style=""/><path d="m139.004 377.754 9.992 12.492 27.004-21.603v-20.486z" fill="#ffffff" data-original="#000000" style=""/><path d="m336 248h48v16h-48z" fill="#ffffff" data-original="#000000" style=""/><path d="m372.996 134.246-9.992-12.492-27.004 21.603v20.486z" fill="#ffffff" data-original="#000000" style=""/><path d="m363.004 390.246 9.992-12.492-36.996-29.597v20.486z" fill="#ffffff" data-original="#000000" style=""/></g></g></svg>
