<?xml version="1.0" encoding="utf-8"?>
<!-- Generator: Adobe Illustrator 24.2.0, SVG Export Plug-In . SVG Version: 6.00 Build 0)  -->
<!DOCTYPE svg PUBLIC "-//W3C//DTD SVG 1.1//EN" "http://www.w3.org/Graphics/SVG/1.1/DTD/svg11.dtd" [
	<!ENTITY ns_extend "http://ns.adobe.com/Extensibility/1.0/">
	<!ENTITY ns_ai "http://ns.adobe.com/AdobeIllustrator/10.0/">
	<!ENTITY ns_graphs "http://ns.adobe.com/Graphs/1.0/">
	<!ENTITY ns_vars "http://ns.adobe.com/Variables/1.0/">
	<!ENTITY ns_imrep "http://ns.adobe.com/ImageReplacement/1.0/">
	<!ENTITY ns_sfw "http://ns.adobe.com/SaveForWeb/1.0/">
	<!ENTITY ns_custom "http://ns.adobe.com/GenericCustomNamespace/1.0/">
	<!ENTITY ns_adobe_xpath "http://ns.adobe.com/XPath/1.0/">
]>
<svg version="1.1" id="Outline" xmlns:x="&ns_extend;" xmlns:i="&ns_ai;" xmlns:graph="&ns_graphs;"
	 xmlns="http://www.w3.org/2000/svg" xmlns:xlink="http://www.w3.org/1999/xlink" x="0px" y="0px" viewBox="0 0 512 512"
	 style="enable-background:new 0 0 512 512;" xml:space="preserve">
<style type="text/css">
	.st0{fill:#232323;}
	.st1{fill:#FCAD30;}
</style>
<metadata>
	<sfw  xmlns="&ns_sfw;">
		<slices></slices>
		<sliceSourceBounds  bottomLeftOrigin="true" height="480" width="480" x="16" y="16"></sliceSourceBounds>
	</sfw>
</metadata>
<path class="st0" d="M397.7,18.3c-1.5-1.5-3.5-2.3-5.7-2.3H152c-22.1,0-40,17.9-40,40v97.4L74.7,186c-3.3,2.9-3.7,8-0.8,11.3
	c0.2,0.3,0.5,0.5,0.8,0.8l29.3,25.6v114.3c-15.2-12.1-24-30.5-24-49.9c0-4.4-3.6-8-8-8H24c-4.4,0-8,3.6-8,8
	c0.1,58.3,39.5,109.3,96,124v44c0,22.1,17.9,40,40,40h304c22.1,0,40-17.9,40-40V120c0-2.1-0.8-4.2-2.3-5.7L397.7,18.3z M400,43.3
	l68.7,68.7H424c-13.2,0-24-10.8-24-24V43.3z M32.3,296h32.1c4.4,44,43.6,76,87.6,71.6s76-43.6,71.6-87.6c-4.1-40.9-38.5-72-79.6-72
	c-4.4,0-8,3.6-8,8v14.4L92.1,192l43.9-38.4V168c0,4.4,3.6,8,8,8c61.9,0,112,50.1,112,112c0,61.9-50.1,112-112,112
	C85.2,400,36.5,354.6,32.3,296z M120,347.3V237.6l18.7,16.4c3.3,2.9,8.4,2.6,11.3-0.8c1.3-1.5,2-3.3,2-5.3v-23.5
	c35.1,4.4,59.9,36.4,55.5,71.5c-4.4,35.1-36.4,59.9-71.5,55.5C130.6,350.8,125.2,349.4,120,347.3L120,347.3z M480,456
	c0,13.2-10.8,24-24,24H152c-13.2,0-24-10.8-24-24v-41c70.2,8.8,134.2-40.9,143-111.1c0.7-5.3,1-10.6,1-15.9
	c0-67.9-53.1-123.6-120-127.8V136c0-4.4-3.6-8-8-8c-1.9,0-3.8,0.7-5.3,2l-10.7,9.4V56c0-13.2,10.8-24,24-24h232v56
	c0,22.1,17.9,40,40,40h56V456z"/>
<path class="st1" d="M288,168c0-4.4-3.6-8-8-8h-16c-4.4,0-8,3.6-8,8s3.6,8,8,8h16C284.4,176,288,172.4,288,168z"/>
<path class="st1" d="M296,224h32c4.4,0,8-3.6,8-8s-3.6-8-8-8h-32c-4.4,0-8,3.6-8,8S291.6,224,296,224z"/>
<path class="st1" d="M440,256H312c-4.4,0-8,3.6-8,8s3.6,8,8,8h128c4.4,0,8-3.6,8-8S444.4,256,440,256z"/>
<path class="st1" d="M360,320c4.4,0,8-3.6,8-8s-3.6-8-8-8h-48c-4.4,0-8,3.6-8,8s3.6,8,8,8H360z"/>
<path class="st1" d="M440,208h-80c-4.4,0-8,3.6-8,8s3.6,8,8,8h80c4.4,0,8-3.6,8-8S444.4,208,440,208z"/>
<path class="st1" d="M440,304h-48c-4.4,0-8,3.6-8,8s3.6,8,8,8h48c4.4,0,8-3.6,8-8S444.4,304,440,304z"/>
<path class="st1" d="M376,400h-64c-4.4,0-8,3.6-8,8s3.6,8,8,8h64c4.4,0,8-3.6,8-8S380.4,400,376,400z"/>
<path class="st1" d="M280,400h-16c-4.4,0-8,3.6-8,8s3.6,8,8,8h16c4.4,0,8-3.6,8-8S284.4,400,280,400z"/>
<path class="st1" d="M248,112h-64c-4.4,0-8,3.6-8,8s3.6,8,8,8h64c4.4,0,8-3.6,8-8S252.4,112,248,112z"/>
<path class="st1" d="M352,360c0-4.4-3.6-8-8-8h-48c-4.4,0-8,3.6-8,8s3.6,8,8,8h48C348.4,368,352,364.4,352,360z"/>
<path class="st1" d="M440,352h-64c-4.4,0-8,3.6-8,8s3.6,8,8,8h64c4.4,0,8-3.6,8-8S444.4,352,440,352z"/>
<path class="st1" d="M440,400h-32c-4.4,0-8,3.6-8,8s3.6,8,8,8h32c4.4,0,8-3.6,8-8S444.4,400,440,400z"/>
<path class="st1" d="M304,168c0,4.4,3.6,8,8,8h128c4.4,0,8-3.6,8-8s-3.6-8-8-8H312C307.6,160,304,163.6,304,168z"/>
</svg>
