<?xml version="1.0" encoding="utf-8"?>
<!-- Generator: Adobe Illustrator 24.2.0, SVG Export Plug-In . SVG Version: 6.00 Build 0)  -->
<!DOCTYPE svg PUBLIC "-//W3C//DTD SVG 1.1//EN" "http://www.w3.org/Graphics/SVG/1.1/DTD/svg11.dtd" [
	<!ENTITY ns_extend "http://ns.adobe.com/Extensibility/1.0/">
	<!ENTITY ns_ai "http://ns.adobe.com/AdobeIllustrator/10.0/">
	<!ENTITY ns_graphs "http://ns.adobe.com/Graphs/1.0/">
	<!ENTITY ns_vars "http://ns.adobe.com/Variables/1.0/">
	<!ENTITY ns_imrep "http://ns.adobe.com/ImageReplacement/1.0/">
	<!ENTITY ns_sfw "http://ns.adobe.com/SaveForWeb/1.0/">
	<!ENTITY ns_custom "http://ns.adobe.com/GenericCustomNamespace/1.0/">
	<!ENTITY ns_adobe_xpath "http://ns.adobe.com/XPath/1.0/">
]>
<svg version="1.1" id="Layer_1" xmlns:x="&ns_extend;" xmlns:i="&ns_ai;" xmlns:graph="&ns_graphs;"
	 xmlns="http://www.w3.org/2000/svg" xmlns:xlink="http://www.w3.org/1999/xlink" x="0px" y="0px" viewBox="0 0 512 512"
	 style="enable-background:new 0 0 512 512;" xml:space="preserve">
<style type="text/css">
	.st0{fill:#232323;}
	.st1{fill:#FCAD30;}
</style>
<metadata>
	<sfw  xmlns="&ns_sfw;">
		<slices></slices>
		<sliceSourceBounds  bottomLeftOrigin="true" height="480" width="480.1" x="16" y="16"></sliceSourceBounds>
	</sfw>
</metadata>
<g id="Outline">
	<path class="st0" d="M492.1,309.2L492,309c-10.6-16.1-31.7-21.7-48.9-13l-51.3,26.2c-12.7-17.8-36.5-23.6-56-13.7l-64.6,33.1
		c-6.8,3.5-15,3.5-21.8-0.1l-44-23.4c-34-18.1-75.2-15.6-106.7,6.5l-5-23.7c-0.9-4.3-5.2-7.1-9.5-6.2c0,0,0,0,0,0l-62,13.4
		c-4.3,0.9-7,5.2-6.1,9.5l36.1,172.1c0.8,3.7,4,6.4,7.8,6.4c0.6,0,1.1-0.1,1.7-0.2l62.1-13.4c4.3-0.9,7-5.2,6.1-9.5l-3.2-15.4
		l21.2-4.6c6.2-1.3,12.5-1.6,18.8-0.7l99.7,10.9c20.7,2.7,41.7-2.2,59-13.9l159.8-107.2C496.3,334.9,499.2,320.2,492.1,309.2z
		 M66.3,478.5L33.5,322l46.4-10l32.8,156.4L66.3,478.5z M476.5,329L316.7,436.2c-14.2,9.5-31.3,13.5-48.2,11.2l-99.7-10.9
		c-8-1.1-16.2-0.8-24.1,1l-21.1,4.5l-21.1-100.3l5.5-3.8c26.6-18.7,61.5-20.9,90.2-5.6l44,23.4c11.4,6.1,25.1,6.2,36.6,0.2
		l64.6-33.1c13.4-6.9,29.8-2,37.4,11c2.2,3.8,1,8.7-2.8,11l-89,52.8c-15.6,9.3-34.1,12.2-51.8,8.2l-80.3-19.2l-3.7,15.6l80.4,19.2
		c21.7,5,44.5,1.4,63.6-10l89-52.8c7.4-4.5,11.9-12.6,11.6-21.2l52.9-27c9.9-5,22-1.8,28.2,7.4l0.1,0.1
		C481,321.5,480.1,326.4,476.5,329z"/>
	<rect x="53.6" y="332.5" transform="matrix(0.9786 -0.2056 0.2056 0.9786 -68.6791 19.9334)" class="st1" width="16" height="16"/>
	<path class="st1" d="M251.3,318.5c2.8,2,6.6,2,9.4,0C341,259.9,390.4,204.1,408.4,152h41.1c4.4,12.5,18.1,19,30.6,14.6
		c12.5-4.4,19-18.1,14.6-30.6c-4.4-12.5-18.1-19-30.6-14.6c-6.8,2.4-12.2,7.8-14.6,14.6h-36.7c1.4-5.9,2.3-11.9,2.8-17.9
		c2.9-24.5-4.4-49.2-20.1-68.3c-16-21.3-41.1-33.8-67.7-33.8c-26.4,1-51.7,10.9-71.8,28.1C235.9,26.9,210.6,17,184.2,16
		c-26.7,0-51.8,12.5-67.8,33.8c-15.7,19.1-23,43.7-20.1,68.3C101.2,179.6,153.3,247,251.3,318.5z M472,136c4.4,0,8,3.6,8,8
		s-3.6,8-8,8s-8-3.6-8-8S467.6,136,472,136z M128.4,60.5c0.4-0.4,0.7-0.8,1-1.2c13-17.2,33.3-27.3,54.9-27.3
		c37.1,0,65.8,28.2,66.1,28.5c3.1,3.1,8.2,3.1,11.3,0c0,0,0,0,0,0C262,60.2,290.5,32,327.8,32c21.6-0.1,41.9,10,54.9,27.3
		c0.3,0.4,0.6,0.8,1,1.2c12.8,15.8,18.6,36.1,16,56.3c-0.5,6.5-1.6,12.9-3.3,19.2h-63.8l-29.7-52c-2.2-3.8-7.1-5.2-10.9-3
		c-1.6,0.9-2.8,2.3-3.5,4L249,184l-25.3-82.4c-1.3-4.2-5.8-6.6-10-5.3c-1.9,0.6-3.5,1.8-4.5,3.5L187.5,136H136v16h56
		c2.8,0,5.4-1.5,6.9-3.9l14.7-24.6l26.7,86.8c1,3.2,3.9,5.5,7.3,5.6h0.4c3.3,0,6.2-2,7.4-5l41.8-104.6l23.8,41.6
		c1.4,2.5,4.1,4.1,6.9,4.1h63.2c-14.8,37.7-51.6,88.3-135.2,150.1c-112.7-83.4-140.4-146.3-143.6-184.6
		C109.6,97.1,115.4,76.5,128.4,60.5z"/>
	<rect x="16" y="136" class="st0" width="64" height="16"/>
</g>
</svg>
