<?xml version="1.0" encoding="utf-8"?>
<!-- Generator: Adobe Illustrator 24.2.0, SVG Export Plug-In . SVG Version: 6.00 Build 0)  -->
<!DOCTYPE svg PUBLIC "-//W3C//DTD SVG 1.1//EN" "http://www.w3.org/Graphics/SVG/1.1/DTD/svg11.dtd" [
	<!ENTITY ns_extend "http://ns.adobe.com/Extensibility/1.0/">
	<!ENTITY ns_ai "http://ns.adobe.com/AdobeIllustrator/10.0/">
	<!ENTITY ns_graphs "http://ns.adobe.com/Graphs/1.0/">
	<!ENTITY ns_vars "http://ns.adobe.com/Variables/1.0/">
	<!ENTITY ns_imrep "http://ns.adobe.com/ImageReplacement/1.0/">
	<!ENTITY ns_sfw "http://ns.adobe.com/SaveForWeb/1.0/">
	<!ENTITY ns_custom "http://ns.adobe.com/GenericCustomNamespace/1.0/">
	<!ENTITY ns_adobe_xpath "http://ns.adobe.com/XPath/1.0/">
]>
<svg version="1.1"
	 id="Layer_1" xmlns:x="&ns_extend;" xmlns:i="&ns_ai;" xmlns:graph="&ns_graphs;" xmlns:svgjs="http://svgjs.com/svgjs"
	 xmlns="http://www.w3.org/2000/svg" xmlns:xlink="http://www.w3.org/1999/xlink" x="0px" y="0px" viewBox="0 0 512 512"
	 style="enable-background:new 0 0 512 512;" xml:space="preserve">
<style type="text/css">
	.st0{fill:#FCAD30;}
	.st1{fill:#232323;}
</style>
<metadata>
	<sfw  xmlns="&ns_sfw;">
		<slices></slices>
		<sliceSourceBounds  bottomLeftOrigin="true" height="512" width="512" x="0" y="0"></sliceSourceBounds>
	</sfw>
</metadata>
<g>
	<path class="st0" d="M145.1,290.1h17.1v17.1h-17.1V290.1z"/>
	<path class="st0" d="M179.2,290.1h17.1v17.1h-17.1V290.1z"/>
	<path class="st0" d="M213.3,290.1h17.1v17.1h-17.1V290.1z"/>
	<path class="st0" d="M145.1,324.3h17.1v17.1h-17.1V324.3z"/>
	<path class="st0" d="M179.2,324.3h17.1v17.1h-17.1V324.3z"/>
	<path class="st0" d="M213.3,324.3h17.1v17.1h-17.1V324.3z"/>
	<path class="st0" d="M247.5,324.3h17.1v17.1h-17.1V324.3z"/>
	<path class="st0" d="M281.6,324.3h17.1v17.1h-17.1V324.3z"/>
	<path class="st0" d="M145.1,358.4h17.1v17.1h-17.1V358.4z"/>
	<path class="st0" d="M179.2,358.4h17.1v17.1h-17.1V358.4z"/>
	<path class="st0" d="M213.3,358.4h17.1v17.1h-17.1V358.4z"/>
	<path class="st0" d="M247.5,358.4h17.1v17.1h-17.1V358.4z"/>
	<path class="st0" d="M281.6,358.4h17.1v17.1h-17.1V358.4z"/>
	<path class="st0" d="M145.1,392.5h17.1v17.1h-17.1V392.5z"/>
	<path class="st0" d="M179.2,392.5h17.1v17.1h-17.1V392.5z"/>
	<path class="st0" d="M213.3,392.5h17.1v17.1h-17.1V392.5z"/>
	<path class="st0" d="M247.5,392.5h17.1v17.1h-17.1V392.5z"/>
	<path class="st0" d="M281.6,392.5h17.1v17.1h-17.1V392.5z"/>
	<path class="st0" d="M145.1,426.7h17.1v17.1h-17.1V426.7z"/>
	<path class="st0" d="M179.2,426.7h17.1v17.1h-17.1V426.7z"/>
	<path class="st0" d="M213.3,426.7h17.1v17.1h-17.1V426.7z"/>
	<path class="st0" d="M247.5,426.7h17.1v17.1h-17.1V426.7z"/>
	<path class="st0" d="M281.6,426.7h17.1v17.1h-17.1V426.7z"/>
	<path class="st0" d="M145.1,460.8h17.1v17.1h-17.1V460.8z"/>
	<path class="st0" d="M179.2,460.8h17.1v17.1h-17.1V460.8z"/>
	<path class="st0" d="M213.3,460.8h17.1v17.1h-17.1V460.8z"/>
	<path class="st0" d="M247.5,460.8h17.1v17.1h-17.1V460.8z"/>
	<path class="st0" d="M281.6,460.8h17.1v17.1h-17.1V460.8z"/>
	<path class="st1" d="M503.5,25.6h-59.7V8.5c0-4.7-3.8-8.5-8.5-8.5h-85.3c-4.7,0-8.5,3.8-8.5,8.5v17.1H8.5c-4.7,0-8.5,3.8-8.5,8.5
		v34.1c0,4.7,3.8,8.5,8.5,8.5h25.6v162.1c0,4.7,3.8,8.5,8.5,8.5s8.5,3.8,8.5,8.5c0,4.7-3.8,8.5-8.5,8.5s-8.5-3.8-8.5-8.5H17.1
		c0,6.2,2.3,12.3,6.5,16.9L1.7,302.1l0.1,0.1c-1.1,1.4-1.8,3.2-1.8,5v34.1c0,2.3,0.9,4.4,2.5,6l17.1,17.1c1.6,1.6,3.8,2.5,6,2.5
		h34.1c2.3,0,4.4-0.9,6-2.5l17.1-17.1c1.6-1.6,2.5-3.8,2.5-6v-34.1c0-1.8-0.7-3.6-1.8-5l0.1-0.1l-21.9-29.2
		c5.7-6.3,7.8-15.1,5.7-23.3c-2.1-8.2-8.2-14.9-16.3-17.7V76.8h290.1v8.5c0,4.7,3.8,8.5,8.5,8.5h17.1v401.1h-34.1V153.6h-17.1v34.1
		h-51.2v-17.1h-17.1v17.1h-51.2v-8.5h-17.1v8.5H128v-25.6h110.9v-17.1H128v-34.1h-17.1v384H97.4l-40.2-40.2c-3.3-3.3-8.7-3.3-12.1,0
		L5,494.9H0V512h512v-17.1h-6.7c6-6.6,8.1-15.8,5.6-24.3c-2.5-8.5-9.3-15.1-17.9-17.4c4.3-10.7,1-23-8.2-30c-9.2-7-21.9-7-31.1,0
		c-9.2,7-12.5,19.3-8.2,30c-8.6,2.2-15.4,8.8-17.9,17.4c-2.5,8.5-0.4,17.8,5.6,24.3h-15.2V93.9h17.1c4.7,0,8.5-3.8,8.5-8.5v-8.5
		h59.7c4.7,0,8.5-3.8,8.5-8.5V34.1C512,29.4,508.2,25.6,503.5,25.6z M46.9,281.6l12.8,17.1H25.6l12.8-17.1H46.9z M68.3,337.8
		l-12.1,12.1H29.1l-12.1-12.1v-22.1h51.2V337.8z M466.8,42.7l-23,15.4V42.7H466.8z M358.4,17.1h34.1v34.1h-34.1V17.1z M128,44.4
		l23,15.4H105L128,44.4z M76.8,58l-23-15.4h46.1L76.8,58z M156.2,42.7h46.1l-23,15.4L156.2,42.7z M230.4,44.4l23,15.4h-46.1
		L230.4,44.4z M258.6,42.7h46.1l-23,15.4L258.6,42.7z M17.1,42.7h6l25.6,17.1H17.1V42.7z M309.8,59.7l25.6-17.1h6v17.1H309.8z
		 M401.1,466.8l-15.4-23l15.4-23V466.8z M401.1,262l-15.4-23l15.4-23V262z M384,267.1l15.4,23l-15.4,23V267.1z M384,210.8v-46.1
		l15.4,23L384,210.8z M384,369.5l15.4,23l-15.4,23V369.5z M401.1,364.3l-15.4-23l15.4-23V364.3z M385.7,136.5l15.4-23v46.1
		L385.7,136.5z M384,108.4V93.9h9.7L384,108.4z M315.7,204.8v85.3h-51.2v-85.3H315.7z M247.5,204.8v73.4l-19.6-19.4
		c-1.6-1.6-3.7-2.5-6-2.5h-25.6v-51.5H247.5z M179.2,204.8V219H128v-14.2H179.2z M51.2,472.9l22.1,22.1H29.1L51.2,472.9z M128,494.9
		V236.1h51.2v28.8c0,4.7,3.8,8.5,8.5,8.5h30.6l31.7,31.3c1.6,1.6,3.7,2.5,6,2.5h59.7v187.7H128z M384,471.9l15.4,23H384V471.9z
		 M486.4,486.4c-4.7,0-8.5-3.8-8.5-8.5c0-4.7,3.8-8.5,8.5-8.5s8.5,3.8,8.5,8.5C494.9,482.6,491.1,486.4,486.4,486.4z M469.3,435.2
		c4.7,0,8.5,3.8,8.5,8.5c0,4.7-3.8,8.5-8.5,8.5s-8.5-3.8-8.5-8.5C460.8,439,464.6,435.2,469.3,435.2z M452.3,469.3
		c4.7,0,8.5,3.8,8.5,8.5c0,4.7-3.8,8.5-8.5,8.5s-8.5-3.8-8.5-8.5C443.7,473.2,447.6,469.3,452.3,469.3z M426.7,76.8h-68.3v-8.5h42.7
		c4.7,0,8.5-3.8,8.5-8.5V17.1h17.1V76.8z M471.9,59.7l23-15.4v15.4H471.9z"/>
</g>
</svg>
