<?xml version="1.0" encoding="utf-8"?>
<!-- Generator: Adobe Illustrator 24.2.0, SVG Export Plug-In . SVG Version: 6.00 Build 0)  -->
<!DOCTYPE svg PUBLIC "-//W3C//DTD SVG 1.1//EN" "http://www.w3.org/Graphics/SVG/1.1/DTD/svg11.dtd" [
	<!ENTITY ns_extend "http://ns.adobe.com/Extensibility/1.0/">
	<!ENTITY ns_ai "http://ns.adobe.com/AdobeIllustrator/10.0/">
	<!ENTITY ns_graphs "http://ns.adobe.com/Graphs/1.0/">
	<!ENTITY ns_vars "http://ns.adobe.com/Variables/1.0/">
	<!ENTITY ns_imrep "http://ns.adobe.com/ImageReplacement/1.0/">
	<!ENTITY ns_sfw "http://ns.adobe.com/SaveForWeb/1.0/">
	<!ENTITY ns_custom "http://ns.adobe.com/GenericCustomNamespace/1.0/">
	<!ENTITY ns_adobe_xpath "http://ns.adobe.com/XPath/1.0/">
]>
<svg version="1.1" id="Capa_1" xmlns:x="&ns_extend;" xmlns:i="&ns_ai;" xmlns:graph="&ns_graphs;"
	 xmlns="http://www.w3.org/2000/svg" xmlns:xlink="http://www.w3.org/1999/xlink" x="0px" y="0px" viewBox="0 0 512 512"
	 style="enable-background:new 0 0 512 512;" xml:space="preserve">
<style type="text/css">
	.st0{fill:#232323;}
	.st1{fill:#FCAD30;}
</style>
<metadata>
	<sfw  xmlns="&ns_sfw;">
		<slices></slices>
		<sliceSourceBounds  bottomLeftOrigin="true" height="512" width="463.9" x="24" y="0"></sliceSourceBounds>
	</sfw>
</metadata>
<g>
	<g>
		<path class="st0" d="M357.2,118.8c-32.6-29.2-74.7-42.6-118.6-37.7c-34.3,3.8-66.8,19.8-91.3,45c-24.5,25.2-39.6,58-42.6,92.5
			c-2.6,29.8,3.5,59.3,17.6,85.3c13.6,25,33.8,45.7,58.7,59.8c12.1,6.9,19.3,18.8,19.3,31.9v60.7c0,13,10.6,23.5,23.5,23.5h0.5v8.5
			c0,13,10.6,23.5,23.5,23.5h16c13,0,23.5-10.6,23.5-23.5v-8.5h0.5c13,0,23.5-10.6,23.5-23.5V397c0-13.8,7.6-26.4,20.3-33.7
			c22.7-13.1,41.7-31.9,54.9-54.4c13.7-23.2,21-49.8,21-76.9C407.8,188.8,389.3,147.6,357.2,118.8z M272.5,488.5L272.5,488.5
			c0,4.7-3.8,8.5-8.5,8.5h-16c-4.7,0-8.5-3.8-8.5-8.5v-8.5h33.1V488.5z M296.6,432.9h-0.5c-4.1,0-7.5,3.4-7.5,7.5s3.4,7.5,7.5,7.5
			h0.5v8.5c0,4.7-3.8,8.5-8.5,8.5h-64.1c-4.7,0-8.5-3.8-8.5-8.5v-8.5H264c4.1,0,7.5-3.4,7.5-7.5s-3.4-7.5-7.5-7.5h-48.6v-17.1h81.2
			L296.6,432.9L296.6,432.9z M324.4,350.2c-17.4,10.1-27.8,27.5-27.8,46.7v3.9h-81.2v-5.1c0-18.3-10.3-35.5-26.9-45
			c-6.9-3.9-13.3-8.4-19.4-13.3c1.5-1.1,3.1-2.1,4.8-2.8l20.8-9.2c18.2,12,39.4,18.3,61.3,18.3c22,0,43.1-6.3,61.3-18.4l20.8,9.2
			c1.7,0.8,3.3,1.7,4.8,2.8C337.1,342.1,330.9,346.4,324.4,350.2z M221.4,209.1c-2.8-3-7.6-3.2-10.6-0.4c-3.8,3.5-7.5,5.7-11.1,6.6
			c-0.1,0-0.2,0-0.2,0c-0.1-0.1-0.1-0.3-0.1-0.7v-14.8c0-26.8,21.8-48.6,48.6-48.6h16c26.8,0,48.6,21.8,48.6,48.6v1.6
			c0,0.2-0.1,0.5-0.3,0.5c-44.9,8.9-67.4-7.8-75-15.4c-2.9-2.9-7.7-2.9-10.6,0c-2.9,2.9-2.9,7.7,0,10.6c23.3,23.3,57.3,23.7,78,21.2
			V232c0,26.8-21.8,48.6-48.6,48.6s-48.6-21.8-48.6-48.6v-3.4c4.7-1.9,9.2-4.8,13.6-8.8C224.1,216.9,224.2,212.2,221.4,209.1z
			 M231.4,293.7v-3.1c7.6,3.2,15.9,4.9,24.6,4.9c8.7,0,17-1.8,24.6-4.9v3.1c0,9.3,5.5,17.7,14,21.5l6,2.6
			c-13.7,7.1-28.8,10.8-44.5,10.8c-15.7,0-30.8-3.7-44.5-10.8l6-2.6C226,311.4,231.4,303,231.4,293.7z M373.9,301.2
			c-5.6,9.4-12.3,18.1-19.9,25.9c-3-2.6-6.3-4.7-9.8-6.3l-43.6-19.4c-3.1-1.4-5.1-4.4-5.1-7.8v-12c14.6-11.7,24-29.6,24-49.8v-16.8
			c4.8-2.7,8-7.8,8-13.6v-1.6c0-35.1-28.5-63.6-63.6-63.6h-16c-35.1,0-63.6,28.5-63.6,63.6v14.8c0,5.1,2.2,9.7,6,12.6
			c0.6,0.5,1.3,0.9,2,1.3v3.3c0,20.1,9.4,38.1,24,49.8v12c0,3.4-2,6.4-5.1,7.8l-43.6,19.4c-3.6,1.6-6.9,3.7-9.9,6.3
			c-8.8-9-16.3-19.2-22.4-30.4c-12.7-23.4-18.2-50-15.8-76.9c2.7-31,16.3-60.6,38.4-83.3c22.1-22.7,51.3-37.1,82.2-40.5
			c5.3-0.6,10.6-0.9,15.9-0.9c33.7,0,65.6,12.1,91,34.8c29,25.9,45.6,63.1,45.6,102C392.8,256.4,386.3,280.3,373.9,301.2z"/>
	</g>
</g>
<g>
	<g>
		<g>
			<path class="st1" d="M256,0c-4.1,0-7.5,3.4-7.5,7.5v48.1c0,4.1,3.4,7.5,7.5,7.5s7.5-3.4,7.5-7.5V7.5C263.5,3.4,260.1,0,256,0z"/>
		</g>
	</g>
	<g>
		<g>
			<path class="st1" d="M480.5,224.5h-48.1c-4.1,0-7.5,3.4-7.5,7.5s3.4,7.5,7.5,7.5h48.1c4.1,0,7.5-3.4,7.5-7.5
				S484.6,224.5,480.5,224.5z"/>
		</g>
	</g>
	<g>
		<g>
			<path class="st1" d="M79.6,224.5H31.5c-4.1,0-7.5,3.4-7.5,7.5s3.4,7.5,7.5,7.5h48.1c4.1,0,7.5-3.4,7.5-7.5
				C87.1,227.8,83.8,224.5,79.6,224.5z"/>
		</g>
	</g>
	<g>
		<g>
			<path class="st1" d="M420,67.9c-2.9-2.9-7.7-2.9-10.6,0l-34,34c-2.9,2.9-2.9,7.7,0,10.6c1.5,1.5,3.4,2.2,5.3,2.2s3.8-0.7,5.3-2.2
				l34-34C422.9,75.6,422.9,70.9,420,67.9z"/>
		</g>
	</g>
	<g>
		<g>
			<path class="st1" d="M136.6,351.4c-2.9-2.9-7.7-2.9-10.6,0l-34,34c-2.9,2.9-2.9,7.7,0,10.6c1.5,1.5,3.4,2.2,5.3,2.2
				s3.8-0.7,5.3-2.2l34-34C139.5,359,139.5,354.3,136.6,351.4z"/>
		</g>
	</g>
	<g>
		<g>
			<path class="st1" d="M420,385.4l-34-34c-2.9-2.9-7.7-2.9-10.6,0c-2.9,2.9-2.9,7.7,0,10.6l34,34c1.5,1.5,3.4,2.2,5.3,2.2
				s3.8-0.7,5.3-2.2C422.9,393,422.9,388.3,420,385.4z"/>
		</g>
	</g>
	<g>
		<g>
			<path class="st1" d="M136.6,101.9l-34-34c-2.9-2.9-7.7-2.9-10.6,0c-2.9,2.9-2.9,7.7,0,10.6l34,34c1.5,1.5,3.4,2.2,5.3,2.2
				s3.8-0.7,5.3-2.2C139.5,109.6,139.5,104.9,136.6,101.9z"/>
		</g>
	</g>
</g>
</svg>
