<?xml version="1.0" encoding="utf-8"?>
<!-- Generator: Adobe Illustrator 24.2.0, SVG Export Plug-In . SVG Version: 6.00 Build 0)  -->
<!DOCTYPE svg PUBLIC "-//W3C//DTD SVG 1.1//EN" "http://www.w3.org/Graphics/SVG/1.1/DTD/svg11.dtd" [
	<!ENTITY ns_extend "http://ns.adobe.com/Extensibility/1.0/">
	<!ENTITY ns_ai "http://ns.adobe.com/AdobeIllustrator/10.0/">
	<!ENTITY ns_graphs "http://ns.adobe.com/Graphs/1.0/">
	<!ENTITY ns_vars "http://ns.adobe.com/Variables/1.0/">
	<!ENTITY ns_imrep "http://ns.adobe.com/ImageReplacement/1.0/">
	<!ENTITY ns_sfw "http://ns.adobe.com/SaveForWeb/1.0/">
	<!ENTITY ns_custom "http://ns.adobe.com/GenericCustomNamespace/1.0/">
	<!ENTITY ns_adobe_xpath "http://ns.adobe.com/XPath/1.0/">
]>
<svg version="1.1" id="Layer_1" xmlns:x="&ns_extend;" xmlns:i="&ns_ai;" xmlns:graph="&ns_graphs;"
	 xmlns="http://www.w3.org/2000/svg" xmlns:xlink="http://www.w3.org/1999/xlink" x="0px" y="0px" viewBox="0 0 512 512"
	 style="enable-background:new 0 0 512 512;" xml:space="preserve">
<style type="text/css">
	.st0{fill:#FCAD30;}
	.st1{fill:#232323;}
</style>
<metadata>
	<sfw  xmlns="&ns_sfw;">
		<slices></slices>
		<sliceSourceBounds  bottomLeftOrigin="true" height="480" width="480" x="16" y="16"></sliceSourceBounds>
	</sfw>
</metadata>
<path class="st0" d="M224,256h-8c-13.6,0-24,10.4-24,24s10.4,24,24,24s24-10.4,24-24v-48h48v24h-8c-13.6,0-24,10.4-24,24
	s10.4,24,24,24s24-10.4,24-24v-64h-80V256z M224,280c0,4.8-3.2,8-8,8s-8-3.2-8-8s3.2-8,8-8h8V280z M288,280c0,4.8-3.2,8-8,8
	s-8-3.2-8-8s3.2-8,8-8h8V280z"/>
<path class="st0" d="M320,80h16v56h-16V80z"/>
<path class="st0" d="M356,95.2l-8,13.6c19.2,11.2,25.6,35.2,14.4,54.4s-35.2,25.6-54.4,14.4s-25.6-35.2-14.4-54.4
	c3.2-6.4,8.8-11.2,14.4-14.4l-8-13.6c-26.4,15.2-36,49.6-20.8,76.8s49.6,36,76.8,20.8s36-49.6,20.8-76.8
	C371.2,107.2,364.8,100.8,356,95.2z"/>
<path class="st0" d="M168,144h16v56h-16V144z"/>
<path class="st0" d="M176,96c22.4,0,40,17.6,40,40c0,14.4-8,27.2-20,34.4l8,13.6c26.4-15.2,36-49.6,20.8-76.8s-49.6-36-76.8-20.8
	s-36,49.6-20.8,76.8c4.8,8.8,12,15.2,20.8,20.8l8-13.6c-19.2-11.2-25.6-35.2-14.4-54.4C148.8,104,161.6,96,176,96z"/>
<path class="st0" d="M170.4,461.6c48,45.6,123.2,45.6,171.2,0l-11.2-12c-41.6,40-107.2,40-148.8,0L170.4,461.6z"/>
<path class="st0" d="M194.4,429.6c32.8,34.4,86.4,35.2,120.8,3.2l3.2-3.2l-11.2-11.2c-26.4,28-70.4,28.8-98.4,2.4
	c-0.8-0.8-1.6-1.6-2.4-2.4L194.4,429.6z"/>
<path class="st0" d="M294.4,396.8l-12-10.4c-10.4,14.4-30.4,17.6-44.8,7.2c-2.4-1.6-4.8-4-7.2-7.2l-12,10.4
	c16,20.8,46.4,24.8,67.2,8.8C288.8,403.2,291.2,400.8,294.4,396.8L294.4,396.8z"/>
<path class="st1" d="M473.6,147.2L464,140V40c0-13.6-10.4-24-24-24H72c-13.6,0-24,10.4-24,24v100l-9.6,7.2C24,157.6,16,174.4,16,192
	v304h16V192c0-12.8,5.6-24.8,16-32v89.6c0,13.6,10.4,24,24,24c6.4,0,12.8-2.4,16.8-7.2l30.4-30.4c5.6-5.6,15.2-5.6,20.8,0
	s5.6,15.2,0,20.8l-20.8,20.8c-4.8,4.8-7.2,10.4-7.2,16.8V336c0,12.8-5.6,24.8-16,32l-6.4,4.8c-6.4,4.8-9.6,12-9.6,19.2v104h16V392
	c0-2.4,0.8-4.8,3.2-6.4l6.4-4.8c4.8-3.2,8.8-8,12-12.8h276c3.2,4.8,7.2,9.6,12,12.8l6.4,4.8c2.4,1.6,3.2,4,3.2,6.4v104h16V392
	c0-7.2-3.2-14.4-9.6-19.2L416,368c-10.4-7.2-16-19.2-16-32v-41.6c0-6.4-2.4-12.8-7.2-16.8L372,256.8c-5.6-5.6-5.6-15.2,0-20.8
	s15.2-5.6,20.8,0l30.4,30.4c9.6,9.6,24.8,9.6,33.6,0c4.8-4.8,7.2-10.4,7.2-16.8V160c10.4,7.2,16,19.2,16,32v304h16V192
	C496,174.4,488,157.6,473.6,147.2z M125.6,352c1.6-4.8,2.4-10.4,2.4-16h256c0,5.6,0.8,11.2,2.4,16H125.6z M382.4,216
	c-16.8,0-30.4,13.6-30.4,30.4c0,8,3.2,16,8.8,21.6l20.8,20.8c1.6,1.6,2.4,3.2,2.4,5.6V320H128v-25.6c0-2.4,0.8-4,2.4-5.6l20.8-20.8
	c12-12,12-31.2,0-43.2s-31.2-12-43.2,0l-12,12V64h320v172.8l-12-12C398.4,219.2,390.4,216,382.4,216L382.4,216z M448,249.6
	c0,4.8-3.2,8-8,8c-2.4,0-4-0.8-5.6-2.4l-2.4-2.4V48H80v204.8l-2.4,2.4c-3.2,3.2-8,3.2-11.2,0c-1.6-1.6-2.4-4-2.4-5.6V40
	c0-4.8,3.2-8,8-8h368c4.8,0,8,3.2,8,8V249.6z"/>
</svg>
