<?xml version="1.0"?>
<svg xmlns="http://www.w3.org/2000/svg" xmlns:xlink="http://www.w3.org/1999/xlink" xmlns:svgjs="http://svgjs.com/svgjs" version="1.1" width="512" height="512" x="0" y="0" viewBox="0 0 64 64" style="enable-background:new 0 0 512 512" xml:space="preserve" class=""><g><path xmlns="http://www.w3.org/2000/svg" d="m22.7 56.3-1.4 1.5c6 5.7 15.4 5.7 21.4 0l-1.4-1.5c-5.2 5-13.4 5-18.6 0z" fill="#ffffff" data-original="#000000" style="" class=""/><path xmlns="http://www.w3.org/2000/svg" d="m24.3 53.7c4.1 4.3 10.8 4.4 15.1.4l.4-.4-1.4-1.4c-3.3 3.5-8.8 3.6-12.3.3-.1-.1-.2-.2-.3-.3z" fill="#ffffff" data-original="#000000" style="" class=""/><path xmlns="http://www.w3.org/2000/svg" d="m36.8 49.6-1.5-1.3c-1.3 1.8-3.8 2.2-5.6.9-.3-.2-.6-.5-.9-.9l-1.5 1.3c2 2.6 5.8 3.1 8.4 1.1.4-.3.7-.6 1.1-1.1z" fill="#ffffff" data-original="#000000" style="" class=""/><path xmlns="http://www.w3.org/2000/svg" d="m47.8 27c1 0 2 .4 2.7 1.1l1.5 1.5v-21.6h-40v21.6l1.5-1.5c1.5-1.5 3.9-1.5 5.4 0s1.5 3.9 0 5.4l-2.6 2.6c-.2.2-.3.4-.3.7v3.2h32v-3.2c0-.3-.1-.5-.3-.7l-2.6-2.6c-1.5-1.5-1.5-3.9 0-5.4.7-.7 1.7-1.1 2.7-1.1zm-7.8-17h2v7h-2zm-20.5 11.3-1 1.7c-3.3-1.9-4.5-6.2-2.6-9.6s6.2-4.5 9.6-2.6 4.5 6.2 2.6 9.6c-.6 1.1-1.5 1.9-2.6 2.6l-1-1.7c2.4-1.4 3.2-4.4 1.8-6.8s-4.4-3.2-6.8-1.8-3.2 4.4-1.8 6.8c.4.8 1 1.4 1.8 1.8zm3.5 3.7h-2v-7h2zm15 10c0 1.7-1.3 3-3 3s-3-1.3-3-3 1.3-3 3-3h1v-3h-6v6c0 1.7-1.3 3-3 3s-3-1.3-3-3 1.3-3 3-3h1v-5h10zm3-10c-3.9 0-7-3.1-7-7 0-2.5 1.3-4.8 3.5-6.1l1 1.7c-2.4 1.4-3.2 4.4-1.8 6.8s4.4 3.2 6.8 1.8 3.2-4.4 1.8-6.8c-.4-.8-1.1-1.4-1.8-1.8l1-1.7c3.3 1.9 4.5 6.2 2.6 9.6-1.3 2.2-3.6 3.5-6.1 3.5z" fill="#ffffff" data-original="#000000" style="" class=""/><path xmlns="http://www.w3.org/2000/svg" d="m34 35c0 .6.4 1 1 1s1-.4 1-1v-1h-1c-.6 0-1 .4-1 1z" fill="#ffffff" data-original="#000000" style="" class=""/><path xmlns="http://www.w3.org/2000/svg" d="m26 35c0 .6.4 1 1 1s1-.4 1-1v-1h-1c-.6 0-1 .4-1 1z" fill="#ffffff" data-original="#000000" style="" class=""/><path xmlns="http://www.w3.org/2000/svg" d="m8.6 32.1c.4.2.8.1 1.1-.2l.3-.3v-25.6h44v25.6l.3.3c.4.4 1 .4 1.4 0 .2-.2.3-.4.3-.7v-26.2c0-.6-.4-1-1-1h-46c-.6 0-1 .4-1 1v26.2c0 .4.2.7.6.9z" fill="#ffffff" data-original="#000000" style="" class=""/><path xmlns="http://www.w3.org/2000/svg" d="m18 30.8c0-1-.8-1.8-1.8-1.8-.5 0-.9.2-1.3.5l-3.8 3.8c-1.2 1.2-3.1 1.2-4.2 0-.6-.6-.9-1.3-.9-2.1v-11.2c-1.3.9-2 2.4-2 4v36h6v-11c0-.9.4-1.8 1.2-2.4l.8-.6c1.3-.9 2-2.4 2-4v-5.2c0-.8.3-1.6.9-2.1l2.6-2.6c.3-.3.5-.8.5-1.3z" fill="#ffffff" data-original="#000000" style="" class=""/><path xmlns="http://www.w3.org/2000/svg" d="m16 42c0 .7-.1 1.4-.3 2h32.6c-.2-.6-.3-1.3-.3-2z" fill="#ffffff" data-original="#000000" style="" class=""/><path xmlns="http://www.w3.org/2000/svg" d="m58 20v11.2c0 1.7-1.3 3-3 3-.8 0-1.6-.3-2.1-.9l-3.8-3.8c-.7-.7-1.9-.7-2.6 0s-.7 1.9 0 2.6l2.6 2.6c.6.6.9 1.3.9 2.1v5.2c0 1.6.7 3.1 2 4l.8.6c.8.6 1.2 1.5 1.2 2.4v11h6v-36c0-1.6-.7-3.1-2-4z" fill="#ffffff" data-original="#000000" style="" class=""/></g></svg>
