<?xml version="1.0"?>
<svg xmlns="http://www.w3.org/2000/svg" xmlns:xlink="http://www.w3.org/1999/xlink" xmlns:svgjs="http://svgjs.com/svgjs" version="1.1" width="512" height="512" x="0" y="0" viewBox="0 0 512.002 512.002" style="enable-background:new 0 0 512 512" xml:space="preserve"><g>
<g xmlns="http://www.w3.org/2000/svg">
	<g>
		<g>
			<path d="M511.936,469.014c-0.022-0.999-0.221-1.986-0.588-2.915c-0.06-0.144-0.161-0.257-0.228-0.396     c-0.247-0.567-0.555-1.105-0.92-1.604l-57.933-74.486V145.069c-0.015-14.132-11.468-25.585-25.6-25.6H307.201V85.336     c0-41.887-43.65-81.487-45.508-83.154c-3.237-2.908-8.146-2.908-11.383,0c-1.858,1.667-45.508,41.267-45.508,83.154v34.133     H85.334c-14.132,0.015-25.585,11.468-25.6,25.6v244.543L1.801,464.098c-0.366,0.501-0.675,1.04-0.922,1.609     c-0.066,0.138-0.166,0.248-0.224,0.39c-0.367,0.93-0.566,1.917-0.589,2.917c-0.004,0.113-0.065,0.208-0.065,0.322v17.067     c0.015,14.132,11.468,25.585,25.6,25.6h460.8c14.132-0.015,25.585-11.468,25.6-25.6v-17.067     C512.001,469.221,511.941,469.127,511.936,469.014z M307.201,136.536h119.467c4.711,0.005,8.529,3.822,8.533,8.533v145.285     c-7.343-5.644-16.338-8.719-25.6-8.752c0.08-15.095-6.539-29.447-18.073-39.185c-11.534-9.738-26.793-13.858-41.66-11.248v-9.299     c0-1.996-0.699-3.928-1.975-5.463l-40.692-48.83V136.536z M307.201,194.24l25.6,30.717v17.492v52.688l-25.6-25.6V194.24z      M256.001,20.506c9.823,10.209,29.22,32.912,33.319,56.296h-66.638C226.781,53.418,246.178,30.716,256.001,20.506z      M221.868,93.869h68.267v128h-68.267V93.869z M221.868,238.936h68.267v25.6h-68.267V238.936z M235.676,298.669l-8.533-17.067     h57.717l-8.533,17.067H235.676z M268.635,315.736c-2.974,9.432-7.225,18.413-12.634,26.692     c-5.412-8.278-9.664-17.259-12.635-26.692H268.635z M76.801,145.069c0.005-4.711,3.822-8.529,8.533-8.533h119.467v31.041     l-40.692,48.83c-1.276,1.534-1.975,3.467-1.975,5.463v9.299c-14.868-2.61-30.127,1.51-41.661,11.248     c-11.534,9.738-18.153,24.091-18.073,39.185c-9.262,0.032-18.257,3.107-25.6,8.752V145.069z M204.801,194.24v75.296l-25.6,25.6     v-70.179L204.801,194.24z M76.801,324.269c0.015-14.132,11.468-25.585,25.6-25.6c2.475,0,4.935,0.371,7.3,1.1     c9.897,2.928,17.068,11.514,18.183,21.775c0.524,4.683,4.745,8.055,9.429,7.533c4.684-0.522,8.058-4.741,7.538-9.425     c-1.668-15.102-11.253-28.173-25.155-34.304c-0.147-1.243-0.223-2.494-0.229-3.746c0.02-18.843,15.29-34.113,34.133-34.133     c2.883,0.039,5.75,0.44,8.533,1.192v67.075c0,3.451,2.079,6.563,5.267,7.883c3.189,1.321,6.859,0.59,9.299-1.85l34.292-34.295     l11.775,23.546c0.753,1.485,1.926,2.717,3.373,3.542c0.035,13.692,17.441,40.654,22.777,48.599     c1.585,2.359,4.241,3.775,7.083,3.775c2.842,0,5.498-1.415,7.083-3.775c5.336-7.946,22.741-34.907,22.777-48.599     c1.447-0.825,2.62-2.057,3.373-3.542l11.772-23.544l34.295,34.294c2.44,2.441,6.11,3.171,9.299,1.85     c3.189-1.321,5.268-4.432,5.268-7.883v-67.075c2.784-0.752,5.65-1.152,8.533-1.192c18.843,0.02,34.113,15.29,34.133,34.133     c-0.005,1.253-0.082,2.505-0.229,3.749c-13.9,6.132-23.484,19.201-25.155,34.301c-0.521,4.682,2.851,8.901,7.533,9.425     c2.255,0.277,4.526-0.366,6.301-1.783s2.904-3.49,3.133-5.75c1.125-10.284,8.324-18.881,18.25-21.796     c2.344-0.717,4.782-1.081,7.233-1.079c14.132,0.015,25.585,11.468,25.6,25.6v59.733h-358.4V324.269z M72.443,401.069h367.117     l46.458,59.733H25.984L72.443,401.069z M494.934,486.402c-0.005,4.711-3.822,8.529-8.533,8.533h-460.8     c-4.711-0.005-8.529-3.822-8.533-8.533v-8.533h477.867V486.402z" fill="#ffffff" data-original="#000000" style=""/>
			<path d="M392.534,426.669H119.468c-4.713,0-8.533,3.82-8.533,8.533s3.82,8.533,8.533,8.533h273.067     c4.713,0,8.533-3.82,8.533-8.533S397.247,426.669,392.534,426.669z" fill="#ffffff" data-original="#000000" style=""/>
			<path d="M85.334,426.669h-8.533c-4.713,0-8.533,3.82-8.533,8.533s3.82,8.533,8.533,8.533h8.533c4.713,0,8.533-3.82,8.533-8.533     S90.047,426.669,85.334,426.669z" fill="#ffffff" data-original="#000000" style=""/>
			<path d="M435.201,426.669h-8.533c-4.713,0-8.533,3.82-8.533,8.533s3.82,8.533,8.533,8.533h8.533c4.713,0,8.533-3.82,8.533-8.533     S439.914,426.669,435.201,426.669z" fill="#ffffff" data-original="#000000" style=""/>
			<path d="M264.534,110.936h-17.067c-4.713,0-8.533,3.82-8.533,8.533s3.82,8.533,8.533,8.533h17.067     c4.713,0,8.533-3.821,8.533-8.533S269.247,110.936,264.534,110.936z" fill="#ffffff" data-original="#000000" style=""/>
			<path d="M264.534,145.069h-17.067c-4.713,0-8.533,3.821-8.533,8.533c0,4.713,3.82,8.533,8.533,8.533h17.067     c4.713,0,8.533-3.821,8.533-8.533C273.068,148.889,269.247,145.069,264.534,145.069z" fill="#ffffff" data-original="#000000" style=""/>
		</g>
	</g>
</g>
<g xmlns="http://www.w3.org/2000/svg">
</g>
<g xmlns="http://www.w3.org/2000/svg">
</g>
<g xmlns="http://www.w3.org/2000/svg">
</g>
<g xmlns="http://www.w3.org/2000/svg">
</g>
<g xmlns="http://www.w3.org/2000/svg">
</g>
<g xmlns="http://www.w3.org/2000/svg">
</g>
<g xmlns="http://www.w3.org/2000/svg">
</g>
<g xmlns="http://www.w3.org/2000/svg">
</g>
<g xmlns="http://www.w3.org/2000/svg">
</g>
<g xmlns="http://www.w3.org/2000/svg">
</g>
<g xmlns="http://www.w3.org/2000/svg">
</g>
<g xmlns="http://www.w3.org/2000/svg">
</g>
<g xmlns="http://www.w3.org/2000/svg">
</g>
<g xmlns="http://www.w3.org/2000/svg">
</g>
<g xmlns="http://www.w3.org/2000/svg">
</g>
</g></svg>
