<?xml version="1.0" encoding="utf-8"?>
<!-- Generator: Adobe Illustrator 24.2.0, SVG Export Plug-In . SVG Version: 6.00 Build 0)  -->
<!DOCTYPE svg PUBLIC "-//W3C//DTD SVG 1.1//EN" "http://www.w3.org/Graphics/SVG/1.1/DTD/svg11.dtd" [
	<!ENTITY ns_extend "http://ns.adobe.com/Extensibility/1.0/">
	<!ENTITY ns_ai "http://ns.adobe.com/AdobeIllustrator/10.0/">
	<!ENTITY ns_graphs "http://ns.adobe.com/Graphs/1.0/">
	<!ENTITY ns_vars "http://ns.adobe.com/Variables/1.0/">
	<!ENTITY ns_imrep "http://ns.adobe.com/ImageReplacement/1.0/">
	<!ENTITY ns_sfw "http://ns.adobe.com/SaveForWeb/1.0/">
	<!ENTITY ns_custom "http://ns.adobe.com/GenericCustomNamespace/1.0/">
	<!ENTITY ns_adobe_xpath "http://ns.adobe.com/XPath/1.0/">
]>
<svg version="1.1"
	 id="Layer_1" xmlns:x="&ns_extend;" xmlns:i="&ns_ai;" xmlns:graph="&ns_graphs;" xmlns:svgjs="http://svgjs.com/svgjs"
	 xmlns="http://www.w3.org/2000/svg" xmlns:xlink="http://www.w3.org/1999/xlink" x="0px" y="0px" viewBox="0 0 512 512"
	 style="enable-background:new 0 0 512 512;" xml:space="preserve">
<style type="text/css">
	.st0{fill:#FCAD30;}
	.st1{fill:#232323;}
</style>
<metadata>
	<sfw  xmlns="&ns_sfw;">
		<slices></slices>
		<sliceSourceBounds  bottomLeftOrigin="true" height="512" width="512" x="0" y="0"></sliceSourceBounds>
	</sfw>
</metadata>
<g>
	<path class="st0" d="M76,240c12.1,0,23.1-4.8,31.2-12.6l44.1,22.1c-0.2,1.8-0.4,3.7-0.4,5.6c0,24.8,20.2,45,45,45s45-20.2,45-45
		c0-6.9-1.6-13.5-4.4-19.4l60-60c5.9,2.8,12.5,4.4,19.4,4.4c24.8,0,45-20.2,45-45c0-4.7-0.7-9.2-2.1-13.5l52.1-39.1
		c7.1,4.8,15.7,7.6,24.9,7.6c24.8,0,45-20.2,45-45S460.8,0,436,0s-45,20.2-45,45c0,4.7,0.7,9.2,2.1,13.5l-52.1,39.1
		c-7.1-4.8-15.7-7.6-24.9-7.6c-24.8,0-45,20.2-45,45c0,6.9,1.6,13.5,4.4,19.4l-60,60c-5.9-2.8-12.5-4.4-19.4-4.4
		c-12.1,0-23.1,4.8-31.2,12.6l-44.1-22.1c0.2-1.8,0.4-3.7,0.4-5.6c0-24.8-20.2-45-45-45s-45,20.2-45,45S51.2,240,76,240z M436,30
		c8.3,0,15,6.7,15,15s-6.7,15-15,15s-15-6.7-15-15S427.7,30,436,30z M316,120c8.3,0,15,6.7,15,15s-6.7,15-15,15s-15-6.7-15-15
		S307.7,120,316,120z M196,240c8.3,0,15,6.7,15,15s-6.7,15-15,15s-15-6.7-15-15S187.7,240,196,240z M76,180c8.3,0,15,6.7,15,15
		s-6.7,15-15,15s-15-6.7-15-15S67.7,180,76,180z"/>
	<path class="st1" d="M497,482h-16V165c0-8.3-6.7-15-15-15h-60c-8.3,0-15,6.7-15,15v317h-30V255c0-8.3-6.7-15-15-15h-60
		c-8.3,0-15,6.7-15,15v227h-30V375c0-8.3-6.7-15-15-15h-60c-8.3,0-15,6.7-15,15v107h-30V315c0-8.3-6.7-15-15-15H46
		c-8.3,0-15,6.7-15,15v167H15c-8.3,0-15,6.7-15,15s6.7,15,15,15h482c8.3,0,15-6.7,15-15S505.3,482,497,482z M421,180h30v302h-30V180
		z M301,270h30v212h-30V270z M181,390h30v92h-30V390z M61,330h30v152H61V330z"/>
</g>
</svg>
