<?xml version="1.0" encoding="utf-8"?>
<!-- Generator: Adobe Illustrator 24.2.0, SVG Export Plug-In . SVG Version: 6.00 Build 0)  -->
<!DOCTYPE svg PUBLIC "-//W3C//DTD SVG 1.1//EN" "http://www.w3.org/Graphics/SVG/1.1/DTD/svg11.dtd" [
	<!ENTITY ns_extend "http://ns.adobe.com/Extensibility/1.0/">
	<!ENTITY ns_ai "http://ns.adobe.com/AdobeIllustrator/10.0/">
	<!ENTITY ns_graphs "http://ns.adobe.com/Graphs/1.0/">
	<!ENTITY ns_vars "http://ns.adobe.com/Variables/1.0/">
	<!ENTITY ns_imrep "http://ns.adobe.com/ImageReplacement/1.0/">
	<!ENTITY ns_sfw "http://ns.adobe.com/SaveForWeb/1.0/">
	<!ENTITY ns_custom "http://ns.adobe.com/GenericCustomNamespace/1.0/">
	<!ENTITY ns_adobe_xpath "http://ns.adobe.com/XPath/1.0/">
]>
<svg version="1.1"
	 id="Layer_1" xmlns:x="&ns_extend;" xmlns:i="&ns_ai;" xmlns:graph="&ns_graphs;" xmlns:svgjs="http://svgjs.com/svgjs"
	 xmlns="http://www.w3.org/2000/svg" xmlns:xlink="http://www.w3.org/1999/xlink" x="0px" y="0px" viewBox="0 0 512 512"
	 style="enable-background:new 0 0 512 512;" xml:space="preserve">
<style type="text/css">
	.st0{fill:#FCAD30;}
	.st1{fill:#232323;}
</style>
<metadata>
	<sfw  xmlns="&ns_sfw;">
		<slices></slices>
		<sliceSourceBounds  bottomLeftOrigin="true" height="511" width="512" x="0" y="0.5"></sliceSourceBounds>
	</sfw>
</metadata>
<g>
	<g>
		<g>
			<g>
				<path class="st0" d="M135.7,86.8c3.8,6.1,10.3,9.5,17,9.5c3.6,0,7.2-1,10.4-3c9.4-5.8,12.3-18.1,6.5-27.5l-15-24.3
					c-5.8-9.4-18.1-12.3-27.5-6.5c-9.4,5.8-12.3,18.1-6.5,27.5L135.7,86.8z"/>
				<path class="st0" d="M67.2,342.3l-25.3,14c-9.6,5.3-13.2,17.5-7.8,27.1c3.6,6.6,10.5,10.3,17.5,10.3c3.3,0,6.6-0.8,9.6-2.5
					l25.3-14c9.7-5.3,13.2-17.5,7.8-27.1C89,340.5,76.8,337,67.2,342.3z"/>
				<path class="st0" d="M255.5,70.4c11,0,20-8.9,20-20V20.5c0-11-8.9-20-20-20s-20,8.9-20,20v29.9
					C235.5,61.4,244.5,70.4,255.5,70.4z"/>
				<path class="st0" d="M69.9,256c0-11-8.9-20-20-20H20c-11,0-20,8.9-20,20c0,11,8.9,20,20,20h29.9C60.9,276,69.9,267,69.9,256z"/>
				<path class="st0" d="M237.6,370.4c-1.1-0.2-2.3-0.4-3.4-0.6c-54.7-10.2-94.5-58-94.5-113.8c0-57.4,42.8-106.7,99.6-114.6
					c1.4-0.2,2.8-0.4,4.3-0.5c11-1.1,18.9-10.9,17.8-21.9c-1.1-11-10.9-18.9-21.9-17.8c-1.9,0.2-3.8,0.4-5.7,0.7
					c-36.9,5.2-70.7,23.5-95.4,51.6c-24.9,28.4-38.6,64.8-38.6,102.6c0,75,53.5,139.4,127.1,153.1c1.5,0.3,3,0.5,4.6,0.8
					c1,0.2,2.1,0.2,3.1,0.2c9.7,0,18.2-7,19.7-16.9C255.9,382.3,248.5,372.1,237.6,370.4z"/>
				<path class="st1" d="M507.8,221c-7.6-16.6-23.9-26.8-42.4-26.8h-35.9l79.6-132.4c3.7-6.2,3.8-13.8,0.3-20.1S499.2,31.4,492,31.4
					H373.3c-7.1,0-13.7,3.8-17.2,9.9L239.6,241.1c-0.1,0.2-0.2,0.3-0.3,0.5c-10.2,18.7-9.8,40.9,1.1,59.3
					c10.9,18.4,30.1,29.3,51.5,29.3h19.5L261,470.6c-3.9,9.3-3.2,19,1.9,26.9c5.6,8.7,16,13.9,27.7,13.9c0.1,0,0.1,0,0.2,0
					c9.9,0,19.6-4,26.4-10.8c0.6-0.6,1.2-1.2,1.7-1.9l109.1-141.9c6.7-8.7,5.1-21.3-3.7-28c-8.7-6.7-21.3-5.1-28,3.7l-81.2,105.5
					L358.6,317c2.2-6.1,1.3-12.9-2.5-18.2c-3.7-5.3-9.8-8.5-16.3-8.5h-47.9c-10.3,0-15.4-6.8-17.2-9.8c-1.7-2.9-5.2-10.6-0.5-19.5
					L384.7,71.4h72l-79.6,132.4c-3.7,6.2-3.8,13.8-0.3,20.1S387,234,394.2,234h71.2c3.9,0,5.5,2.2,6.1,3.6c0.7,1.6,1.1,4-1.2,6.7
					c0,0.1-0.1,0.1-0.1,0.2l-8.2,9.8c-7.1,8.4-6,21,2.5,28.1c8.4,7.1,21,6,28.1-2.5l8.1-9.7C512.6,256.2,515.3,237.4,507.8,221z"/>
				<path class="st0" d="M88.8,129.9l-24.4-14c-9.6-5.5-21.8-2.2-27.2,7.4s-2.2,21.8,7.4,27.2l24.4,14c3.1,1.8,6.5,2.6,9.9,2.6
					c6.9,0,13.6-3.6,17.3-10C101.6,147.6,98.3,135.4,88.8,129.9z"/>
				<path class="st0" d="M156.8,414.4c-9.5-5.6-21.7-2.3-27.3,7.2l-14.6,25c-5.6,9.5-2.3,21.7,7.2,27.3c3.2,1.8,6.6,2.7,10,2.7
					c6.9,0,13.5-3.5,17.3-9.9l14.6-25C169.5,432.2,166.3,420,156.8,414.4z"/>
			</g>
		</g>
	</g>
</g>
</svg>
